<svg width="20" height="20" viewBox="0 0 20 20" fill="none" xmlns="http://www.w3.org/2000/svg">
<path d="M9.66094 1.41938C9.69258 1.3566 9.74101 1.30383 9.80094 1.26696C9.86078 1.23009 9.92969 1.21057 10 1.21057C10.0703 1.21057 10.1392 1.23009 10.1991 1.26696C10.259 1.30383 10.3074 1.3566 10.3391 1.41938L11.1273 3.00844C11.1546 3.06291 11.1946 3.10998 11.244 3.14562C11.2934 3.18127 11.3507 3.20443 11.4109 3.21313L13.1797 3.4686C13.2487 3.4783 13.3138 3.50705 13.3675 3.55162C13.4212 3.59619 13.4613 3.65482 13.4836 3.72094C13.5054 3.78681 13.5081 3.85751 13.4913 3.92485C13.4746 3.99219 13.4391 4.05341 13.3891 4.10141L12.1094 5.34673C12.0662 5.38842 12.0337 5.44002 12.015 5.49706C11.9962 5.55409 11.9916 5.61485 12.0016 5.67407L12.3047 7.42954C12.3162 7.49822 12.308 7.56873 12.2812 7.63298C12.2544 7.69724 12.21 7.75264 12.1531 7.79282C12.0959 7.8337 12.0284 7.85791 11.9582 7.86273C11.888 7.86756 11.8178 7.85282 11.7555 7.82016L10.1766 6.99673C10.1222 6.96786 10.0616 6.95277 10 6.95277C9.93844 6.95277 9.87781 6.96786 9.82344 6.99673L8.24844 7.82016C8.18612 7.85282 8.11595 7.86756 8.04575 7.86273C7.97555 7.85791 7.90806 7.8337 7.85079 7.79282C7.79393 7.75264 7.74955 7.69724 7.72274 7.63298C7.69594 7.56873 7.68779 7.49822 7.69922 7.42954L8.00235 5.67407C8.01233 5.61485 8.00773 5.55409 7.98894 5.49706C7.97015 5.44002 7.93776 5.38842 7.89454 5.34673L6.61094 4.10141C6.56085 4.05341 6.52539 3.99219 6.50865 3.92485C6.49193 3.85751 6.49462 3.78681 6.51641 3.72094C6.53865 3.65482 6.57886 3.59619 6.63254 3.55162C6.68621 3.50705 6.75123 3.4783 6.82032 3.4686L8.58906 3.21313C8.64937 3.20443 8.70664 3.18127 8.75601 3.14562C8.80539 3.10998 8.84539 3.06291 8.87265 3.00844L9.66094 1.41938Z" stroke="#2B3674" stroke-width="1.25" stroke-linecap="round" stroke-linejoin="round"/>
<path d="M5.56405 8.51571L4.88984 8.16417C4.8352 8.1357 4.7745 8.12082 4.71288 8.12082C4.65127 8.12082 4.59057 8.1357 4.53593 8.16417L2.96171 8.98446C2.89927 9.01703 2.82905 9.0318 2.75877 9.02711C2.68848 9.02242 2.62085 8.99852 2.56327 8.95789C2.50642 8.91758 2.46212 8.86203 2.43544 8.79758C2.40877 8.7332 2.40081 8.66258 2.41249 8.59383L2.71484 6.83917C2.72505 6.78002 2.72064 6.71927 2.70198 6.66221C2.68333 6.60515 2.65099 6.55353 2.6078 6.51183L1.32343 5.26886C1.27363 5.22067 1.23842 5.15941 1.22184 5.09211C1.20526 5.02481 1.20797 4.95421 1.22968 4.88839C1.25192 4.82227 1.29213 4.76363 1.3458 4.71907C1.39948 4.6745 1.4645 4.64575 1.53359 4.63605L3.30155 4.38058C3.36198 4.372 3.41941 4.34889 3.46895 4.31324C3.51847 4.2776 3.55862 4.23046 3.58593 4.17589L4.37499 2.58683C4.40652 2.52397 4.45495 2.47115 4.51485 2.43431C4.57475 2.39746 4.64373 2.37804 4.71405 2.37824" stroke="#2B3674" stroke-width="1.25" stroke-linecap="round" stroke-linejoin="round"/>
<path d="M14.4359 8.51571L15.1102 8.16339C15.1648 8.13492 15.2255 8.12004 15.2871 8.12004C15.3487 8.12004 15.4095 8.13492 15.4641 8.16339L17.0383 8.98446C17.1007 9.01703 17.1709 9.0318 17.2412 9.02711C17.3115 9.02242 17.3791 8.99852 17.4367 8.95789C17.4936 8.91758 17.5379 8.86203 17.5645 8.79758C17.5912 8.7332 17.5992 8.66258 17.5875 8.59383L17.2852 6.83917C17.2749 6.78002 17.2794 6.71927 17.298 6.66221C17.3166 6.60515 17.349 6.55353 17.3922 6.51183L18.6766 5.26574C18.7264 5.21754 18.7616 5.15628 18.7781 5.08899C18.7948 5.0217 18.792 4.95109 18.7703 4.88527C18.748 4.81914 18.7079 4.76051 18.6542 4.71595C18.6005 4.67138 18.5355 4.64263 18.4664 4.63292L16.6984 4.37745C16.638 4.36888 16.5806 4.34577 16.5311 4.31012C16.4816 4.27447 16.4414 4.22734 16.4141 4.17277L15.625 2.58683C15.5935 2.52397 15.5451 2.47115 15.4852 2.43431C15.4252 2.39746 15.3562 2.37804 15.2859 2.37824" stroke="#2B3674" stroke-width="1.25" stroke-linecap="round" stroke-linejoin="round"/>
<path d="M6.77891 12.6928V13.4741C6.80906 14.3734 6.57551 15.262 6.10703 16.0303" stroke="#2B3674" stroke-width="1.25" stroke-linecap="round" stroke-linejoin="round"/>
<path d="M13.2219 12.6928V13.4741C13.1916 14.3734 13.4248 15.2619 13.893 16.0303" stroke="#2B3674" stroke-width="1.25" stroke-linecap="round" stroke-linejoin="round"/>
<path d="M6.7875 12.8634C7.39775 12.8592 8.00006 12.7247 8.55414 12.4688C9.10812 12.2129 9.60109 11.8416 10 11.3798C10.3988 11.8418 10.8917 12.2132 11.4458 12.4692C11.9998 12.7252 12.6022 12.8598 13.2125 12.8641" stroke="#2B3674" stroke-width="1.25" stroke-linecap="round" stroke-linejoin="round"/>
<path d="M6.77734 12.6062C6.77734 13.4609 7.11687 14.2806 7.72123 14.885C8.3256 15.4893 9.14531 15.8288 10 15.8288C10.8547 15.8288 11.6744 15.4893 12.2788 14.885C12.8831 14.2806 13.2227 13.4609 13.2227 12.6062C13.2227 11.7515 12.8831 10.9318 12.2788 10.3274C11.6744 9.72305 10.8547 9.38351 10 9.38351C9.14531 9.38351 8.3256 9.72305 7.72123 10.3274C7.11687 10.9318 6.77734 11.7515 6.77734 12.6062Z" stroke="#2B3674" stroke-width="1.25" stroke-linecap="round" stroke-linejoin="round"/>
<path d="M13.943 18.7892C13.3998 18.1727 12.7203 17.6912 11.9586 17.383L10 18.7587L8.04141 17.3861C7.28381 17.6919 6.6073 18.1689 6.06485 18.7798" stroke="#2B3674" stroke-width="1.25" stroke-linecap="round" stroke-linejoin="round"/>
</svg>
