<svg width="20" height="20" viewBox="0 0 20 20" fill="none" xmlns="http://www.w3.org/2000/svg">
<path d="M17.6172 15.2734H9.41406L4.72656 18.7891V15.2734H2.38281C2.07202 15.2734 1.77394 15.15 1.55417 14.9302C1.3344 14.7105 1.21094 14.4123 1.21094 14.1016V2.38281C1.21094 2.07202 1.3344 1.77394 1.55417 1.55417C1.77394 1.3344 2.07202 1.21094 2.38281 1.21094H17.6172C17.928 1.21094 18.2261 1.3344 18.4459 1.55417C18.6656 1.77394 18.7891 2.07202 18.7891 2.38281V14.1016C18.7891 14.4123 18.6656 14.7105 18.4459 14.9302C18.2261 15.15 17.928 15.2734 17.6172 15.2734Z" stroke="#2B3674" stroke-width="1.25" stroke-linecap="round" stroke-linejoin="round"/>
<path d="M10 8.53516C9.8382 8.53516 9.70703 8.40399 9.70703 8.24219C9.70703 8.08038 9.8382 7.94922 10 7.94922" stroke="#2B3674" stroke-width="1.25"/>
<path d="M10 8.53516C10.1618 8.53516 10.293 8.40399 10.293 8.24219C10.293 8.08038 10.1618 7.94922 10 7.94922" stroke="#2B3674" stroke-width="1.25"/>
<path d="M6.48438 8.53516C6.32257 8.53516 6.19141 8.40399 6.19141 8.24219C6.19141 8.08038 6.32257 7.94922 6.48438 7.94922" stroke="#2B3674" stroke-width="1.25"/>
<path d="M6.48438 8.53516C6.64618 8.53516 6.77734 8.40399 6.77734 8.24219C6.77734 8.08038 6.64618 7.94922 6.48438 7.94922" stroke="#2B3674" stroke-width="1.25"/>
<path d="M13.5156 8.53516C13.3538 8.53516 13.2227 8.40399 13.2227 8.24219C13.2227 8.08038 13.3538 7.94922 13.5156 7.94922" stroke="#2B3674" stroke-width="1.25"/>
<path d="M13.5156 8.53516C13.6774 8.53516 13.8086 8.40399 13.8086 8.24219C13.8086 8.08038 13.6774 7.94922 13.5156 7.94922" stroke="#2B3674" stroke-width="1.25"/>
</svg>
