<svg width="16" height="16" viewBox="0 0 16 16" fill="none" xmlns="http://www.w3.org/2000/svg">
<g clip-path="url(#clip0_114_2044)">
<path d="M14.5 12.5H7.5L3.5 15.5V12.5H1.5C1.23479 12.5 0.980427 12.3947 0.792893 12.2071C0.605357 12.0196 0.5 11.7652 0.5 11.5V1.5C0.5 1.23479 0.605357 0.980427 0.792893 0.792893C0.980427 0.605357 1.23479 0.5 1.5 0.5H14.5C14.7652 0.5 15.0196 0.605357 15.2071 0.792893C15.3947 0.980427 15.5 1.23479 15.5 1.5V11.5C15.5 11.7652 15.3947 12.0196 15.2071 12.2071C15.0196 12.3947 14.7652 12.5 14.5 12.5Z" stroke="#2B3674" stroke-width="1.25" stroke-linecap="round" stroke-linejoin="round"/>
<path d="M6.5 4.50005C6.50007 4.1334 6.60093 3.77383 6.79153 3.46062C6.9822 3.14742 7.2552 2.89265 7.58087 2.72415C7.90647 2.55565 8.2722 2.4799 8.63793 2.50519C9.00373 2.53048 9.35553 2.65583 9.65487 2.86755C9.9542 3.07926 10.1896 3.36919 10.3353 3.70564C10.481 4.04209 10.5314 4.41213 10.481 4.77529C10.4306 5.13846 10.2814 5.48079 10.0496 5.76487C9.8178 6.04894 9.51233 6.26383 9.16667 6.38605C8.97173 6.45497 8.80293 6.58263 8.68353 6.75149C8.56413 6.92029 8.5 7.12195 8.5 7.32875V7.50009" stroke="#2B3674" stroke-width="1.25" stroke-linecap="round" stroke-linejoin="round"/>
<path d="M8.5 10C8.36193 10 8.25 9.88807 8.25 9.75C8.25 9.61193 8.36193 9.5 8.5 9.5" stroke="#2B3674" stroke-width="1.25"/>
<path d="M8.5 10C8.63807 10 8.75 9.88807 8.75 9.75C8.75 9.61193 8.63807 9.5 8.5 9.5" stroke="#2B3674" stroke-width="1.25"/>
</g>
<defs>
<clipPath id="clip0_114_2044">
<rect width="16" height="16" fill="white"/>
</clipPath>
</defs>
</svg>
