<svg width="18" height="18" viewBox="0 0 18 18" fill="none" xmlns="http://www.w3.org/2000/svg">
<path d="M7.23584 6.74685C7.23584 7.21471 7.4217 7.66344 7.75253 7.99422C8.08339 8.32508 8.53206 8.51094 8.99987 8.51094C9.46776 8.51094 9.91643 8.32508 10.2473 7.99422C10.5781 7.66344 10.7639 7.21471 10.7639 6.74685C10.7639 6.27899 10.5781 5.8303 10.2473 5.49947C9.91643 5.16865 9.46776 4.98279 8.99987 4.98279C8.53206 4.98279 8.08339 5.16865 7.75253 5.49947C7.4217 5.8303 7.23584 6.27899 7.23584 6.74685Z" stroke="#2B3674" stroke-width="1.25" stroke-linecap="round" stroke-linejoin="round"/>
<path d="M5.85083 12.6258C5.85083 11.7905 6.18263 10.9895 6.77322 10.3989C7.36381 9.80836 8.16482 9.47656 9.00006 9.47656C9.83529 9.47656 10.6363 9.80836 11.2269 10.3989C11.8175 10.9895 12.1493 11.7905 12.1493 12.6258H5.85083Z" stroke="#2B3674" stroke-width="1.25" stroke-linecap="round" stroke-linejoin="round"/>
<path d="M1.56421 9C1.56421 10.9684 2.34615 12.8562 3.73802 14.248C5.1299 15.6399 7.01768 16.4219 8.98611 16.4219C10.9545 16.4219 12.8423 15.6399 14.2342 14.248C15.626 12.8562 16.408 10.9684 16.408 9C16.408 7.03159 15.626 5.14381 14.2342 3.75195C12.8423 2.36007 10.9545 1.57812 8.98611 1.57812C7.01768 1.57812 5.1299 2.36007 3.73802 3.75195C2.34615 5.14381 1.56421 7.03159 1.56421 9Z" stroke="#2B3674" stroke-width="1.25" stroke-linecap="round" stroke-linejoin="round"/>
</svg>
