<svg width="20" height="20" viewBox="0 0 20 20" fill="none" xmlns="http://www.w3.org/2000/svg">
<path d="M8.23584 7.74685C8.23584 8.21471 8.4217 8.66344 8.75253 8.99422C9.08339 9.32508 9.53206 9.51094 9.99987 9.51094C10.4678 9.51094 10.9164 9.32508 11.2473 8.99422C11.5781 8.66344 11.7639 8.21471 11.7639 7.74685C11.7639 7.27899 11.5781 6.8303 11.2473 6.49947C10.9164 6.16865 10.4678 5.98279 9.99987 5.98279C9.53206 5.98279 9.08339 6.16865 8.75253 6.49947C8.4217 6.8303 8.23584 7.27899 8.23584 7.74685Z" stroke="#2B3674" stroke-width="1.25" stroke-linecap="round" stroke-linejoin="round"/>
<path d="M6.85083 13.6258C6.85083 12.7905 7.18263 11.9895 7.77322 11.3989C8.36381 10.8084 9.16482 10.4766 10.0001 10.4766C10.8353 10.4766 11.6363 10.8084 12.2269 11.3989C12.8175 11.9895 13.1493 12.7905 13.1493 13.6258H6.85083Z" stroke="#2B3674" stroke-width="1.25" stroke-linecap="round" stroke-linejoin="round"/>
<path d="M2.56421 10C2.56421 11.9684 3.34615 13.8562 4.73802 15.248C6.1299 16.6399 8.01768 17.4219 9.98611 17.4219C11.9545 17.4219 13.8423 16.6399 15.2342 15.248C16.626 13.8562 17.408 11.9684 17.408 10C17.408 8.03159 16.626 6.14381 15.2342 4.75195C13.8423 3.36007 11.9545 2.57812 9.98611 2.57812C8.01768 2.57812 6.1299 3.36007 4.73802 4.75195C3.34615 6.14381 2.56421 8.03159 2.56421 10Z" stroke="#2B3674" stroke-width="1.25" stroke-linecap="round" stroke-linejoin="round"/>
</svg>
